<?xml version="1.0" encoding="utf-8"?>
<!-- Generator: Adobe Illustrator 25.0.1, SVG Export Plug-In . SVG Version: 6.00 Build 0)  -->
<svg version="1.1" id="圖層_1" xmlns="http://www.w3.org/2000/svg" xmlns:xlink="http://www.w3.org/1999/xlink" x="0px" y="0px"
	 viewBox="0 0 128 128" style="enable-background:new 0 0 128 128;" xml:space="preserve">
<style type="text/css">
	.st0{fill:#409EFF;}
	.st1{fill:#5D95CF;}
</style>
<path class="st0" d="M10.1,63.53c0-8.72,0.1-17.44-0.05-26.16c-0.06-3.71,1.23-6.05,4.57-7.92c15.34-8.64,30.57-17.48,45.79-26.34
	c2.91-1.69,5.48-1.7,8.39-0.01c15.23,8.84,30.49,17.62,45.8,26.32c3.22,1.83,4.75,4.16,4.61,7.96c-0.22,5.78-0.1,11.59-0.03,17.38
	c0.02,1.44-0.49,2.31-1.74,2.98c-2.09,1.11-4.1,2.35-6.16,3.52c-2.13,1.21-3.09,0.64-3.1-1.86c-0.02-5.3-0.1-10.59,0.03-15.88
	c0.08-3.48-1.23-5.83-4.31-7.57c-11.87-6.7-23.66-13.52-35.44-20.37c-2.65-1.54-5.05-1.52-7.69,0.02
	C48.86,22.49,36.95,29.36,25,36.16c-2.8,1.59-4.07,3.78-4.06,6.96c0.04,13.77,0.05,27.54,0,41.3c-0.01,3.19,1.29,5.36,4.08,6.95
	c11.9,6.77,23.76,13.6,35.59,20.49c2.77,1.61,5.24,1.67,8.03,0.04c11.82-6.9,23.69-13.72,35.58-20.51c2.71-1.55,4.02-3.71,3.96-6.83
	c-0.07-3.49,0.03-6.98-0.04-10.47c-0.03-1.42,0.48-2.31,1.74-2.98c2.14-1.13,4.2-2.44,6.31-3.62c1.91-1.07,2.93-0.45,2.94,1.76
	c0.01,7.35,0.02,14.7,0,22.05c-0.01,2.45-0.85,4.46-3.11,5.76c-7.55,4.33-15.08,8.7-22.62,13.06c-8.19,4.73-16.42,9.39-24.55,14.22
	c-2.91,1.73-5.45,1.69-8.36,0c-15.39-8.94-30.83-17.79-46.28-26.61c-2.84-1.62-4.16-3.83-4.13-7.11
	C10.16,81.6,10.1,72.57,10.1,63.53z"/>
<path class="st1" d="M89.47,49.41c-4.39,2.53-8.52,4.9-12.64,7.27c-2.9,1.67-5.81,3.34-8.69,5.05c-2.91,1.73-5.56,0.93-8.22-0.62
	c-8.58-5-17.18-9.98-25.78-14.94c-1.25-0.72-2.29-1.51-2.2-3.13c0.08-1.56,1.08-2.34,2.35-3.07c8.19-4.67,16.49-9.18,24.47-14.19
	c4.06-2.55,7.52-2.83,11.45-0.13c2.69,1.85,5.63,3.32,8.42,5.03c1.64,1,1.68,2.07,0.06,3.08c-2.37,1.47-4.83,2.79-7.26,4.18
	c-0.79,0.45-1.49,0.31-2.23-0.21c-3.04-2.12-6.06-2.1-9.17-0.03c-2.11,1.41-4.4,2.56-6.55,3.9c-1.6,1-1.63,2.17-0.04,3.13
	c2.69,1.63,5.43,3.18,8.2,4.69c2.94,1.6,5.54,0.3,8.06-1.15c6.02-3.47,12.03-6.96,18.02-10.48c1.17-0.68,2.12-0.85,3.4,0
	c2.41,1.6,5,2.93,7.53,4.35c1.21,0.68,1.73,1.7,1.73,3.06c-0.01,12.33-0.01,24.67,0,37c0,1.5-0.56,2.55-1.91,3.33
	c-7.87,4.48-15.71,9.02-23.56,13.55c-2.04,1.18-4.17,2.23-6.11,3.56c-2.99,2.03-5.77,1.59-8.69-0.12
	c-9.54-5.58-19.09-11.12-28.68-16.59c-1.82-1.04-2.7-2.35-2.69-4.43c0.04-8.35,0.01-16.7,0.02-25.04c0-2.87,1.08-3.48,3.53-2.04
	c2.02,1.19,4,2.47,6.06,3.58c1.16,0.63,1.49,1.48,1.48,2.72c-0.04,4.86,0.04,9.72-0.04,14.58c-0.03,1.87,0.55,3.15,2.24,4.11
	c6.55,3.71,13.02,7.56,19.58,11.25c1.85,1.04,3.88,1.18,5.86,0.04c6.98-4.03,13.98-8.05,20.98-12.05c0.73-0.42,1.05-0.9,1.04-1.77
	C89.46,67.83,89.47,58.8,89.47,49.41z"/>
</svg>
